<?xml version="1.0" encoding="UTF-8" standalone="no"?>
<svg
   xmlns:dc="http://purl.org/dc/elements/1.1/"
   xmlns:cc="http://creativecommons.org/ns#"
   xmlns:rdf="http://www.w3.org/1999/02/22-rdf-syntax-ns#"
   xmlns:svg="http://www.w3.org/2000/svg"
   xmlns="http://www.w3.org/2000/svg"
   xmlns:sodipodi="http://sodipodi.sourceforge.net/DTD/sodipodi-0.dtd"
   xmlns:inkscape="http://www.inkscape.org/namespaces/inkscape"
   version="1.1"
   viewBox="0 0 89.986931 87.687508"
   xml:space="preserve"
   x="0px"
   y="0px"
   id="svg8"
   sodipodi:docname="recycle_off.svg"
   width="89.986931"
   height="87.687508"
   inkscape:version="0.92.2 (5c3e80d, 2017-08-06)"><metadata
     id="metadata14"><rdf:RDF><cc:Work
         rdf:about=""><dc:format>image/svg+xml</dc:format><dc:type
           rdf:resource="http://purl.org/dc/dcmitype/StillImage" /><dc:title /></cc:Work></rdf:RDF></metadata><defs
     id="defs12" /><sodipodi:namedview
     pagecolor="#ffffff"
     bordercolor="#666666"
     borderopacity="1"
     objecttolerance="10"
     gridtolerance="10"
     guidetolerance="10"
     inkscape:pageopacity="0"
     inkscape:pageshadow="2"
     inkscape:window-width="1920"
     inkscape:window-height="1017"
     id="namedview10"
     showgrid="false"
     inkscape:zoom="1.888"
     inkscape:cx="-47.955405"
     inkscape:cy="31.34375"
     inkscape:window-x="-8"
     inkscape:window-y="-8"
     inkscape:window-maximized="1"
     inkscape:current-layer="svg8" /><path
     d="M 51.875103,5.7438921e-6 C 44.638127,-0.00375836 35.906353,1.8437557 35.906353,1.8437557 c 0,0 2.25578,0.7670923 4.75,2.5625 3.044364,2.191461 4.974049,4.650501 6.3125,6.9687503 l 7.65625,13.28125 -4.84375,2.8125 20.28125,5.4375 5.4375,-20.28125 -4.875,2.8125 C 69.521278,13.515027 67.336484,9.7048567 65.500103,6.5625057 63.921973,3.8620387 61.196935,1.7061317 58.218853,0.75000574 56.515192,0.20303684 54.287428,0.00126044 51.875103,5.7438921e-6 Z M 29.906353,3.2187557 c -1.914292,0.078814 -3.543822,0.860601 -4.5625,2.625 l -10,17.3125003 16.0625,9.28125 12.15625,-21 C 41.421842,7.3836237 34.798433,3.0173411 29.906353,3.2187557 Z m -7.6875,26.6250003 -20.3125004,5.4375 4.875,2.8125 c -1.113806,1.918563 -3.2911192,5.714411 -5.09375,8.875 -1.5496157,2.716937 -2.0672629,6.161592 -1.40625,9.21875 1.5125676,6.995594 12.0937504,18.78125 12.0937504,18.78125 0,0 -0.464004,-2.317245 -0.15625,-5.375 0.375675,-3.732236 1.536565,-6.650501 2.875,-8.96875 l 7.6875,-13.3125 4.875,2.8125 z m 57.0625,0.4375 -16.0625,9.28125 12.125,21.03125 c 6.37376,0.240675 17.559465,-6.695333 13.9375,-12.96875 z m -20.9375,27.6875 -14.875,14.84375 14.875,14.875 v -5.65625 c 2.219896,0.0053 6.612525,0.01917 10.25,0 3.127746,-0.01647 6.33918,-1.273968 8.65625,-3.375 5.302076,-4.807719 10.21875,-19.875 10.21875,-19.875 0,0 -1.791776,1.550153 -4.59375,2.8125 -3.420039,1.540775 -6.510614,2 -9.1875,2 h -15.34375 z m -41.46875,5.5625 c -3.395309,5.399508 -2.99393,18.59375 4.25,18.59375 h 20 v -18.59375 z"
     style="fill:#455a64;fill-opacity:1;fill-rule:evenodd;stroke:none"
     id="path2"
     inkscape:connector-curvature="0" /></svg>