<?xml version="1.0" encoding="UTF-8" standalone="no"?>
<!-- Created with Inkscape (http://www.inkscape.org/) -->

<svg
   xmlns:dc="http://purl.org/dc/elements/1.1/"
   xmlns:cc="http://creativecommons.org/ns#"
   xmlns:rdf="http://www.w3.org/1999/02/22-rdf-syntax-ns#"
   xmlns:svg="http://www.w3.org/2000/svg"
   xmlns="http://www.w3.org/2000/svg"
   xmlns:sodipodi="http://sodipodi.sourceforge.net/DTD/sodipodi-0.dtd"
   xmlns:inkscape="http://www.inkscape.org/namespaces/inkscape"
   width="11.059584mm"
   height="11.059584mm"
   viewBox="0 0 11.059583 11.059584"
   version="1.1"
   id="svg823"
   inkscape:version="0.92.2 (5c3e80d, 2017-08-06)"
   sodipodi:docname="day.svg">
  <defs
     id="defs817" />
  <sodipodi:namedview
     id="base"
     pagecolor="#ffffff"
     bordercolor="#666666"
     borderopacity="1.0"
     inkscape:pageopacity="0.0"
     inkscape:pageshadow="2"
     inkscape:zoom="11.2"
     inkscape:cx="-22.004462"
     inkscape:cy="27.671296"
     inkscape:document-units="mm"
     inkscape:current-layer="layer1"
     showgrid="false"
     inkscape:window-width="1920"
     inkscape:window-height="1017"
     inkscape:window-x="-8"
     inkscape:window-y="-8"
     inkscape:window-maximized="1" />
  <metadata
     id="metadata820">
    <rdf:RDF>
      <cc:Work
         rdf:about="">
        <dc:format>image/svg+xml</dc:format>
        <dc:type
           rdf:resource="http://purl.org/dc/dcmitype/StillImage" />
        <dc:title></dc:title>
      </cc:Work>
    </rdf:RDF>
  </metadata>
  <g
     inkscape:label="Layer 1"
     inkscape:groupmode="layer"
     id="layer1"
     transform="translate(-120.48277,-116.49371)">
    <g
       transform="matrix(0.26458333,0,0,0.26458333,117.30777,113.31871)"
       id="clear"
       style="fill:#f4a71d;fill-opacity:1">
      <path
         class="st0"
         d="m 32.9,19.2 c -0.7,0 -1.3,-0.6 -1.3,-1.3 v -4.6 c 0,-0.7 0.6,-1.3 1.3,-1.3 0.7,0 1.3,0.6 1.3,1.3 v 4.6 c 0,0.7 -0.6,1.3 -1.3,1.3 z m 0,34.6 c -0.7,0 -1.3,-0.6 -1.3,-1.3 v -4.6 c 0,-0.7 0.6,-1.3 1.3,-1.3 0.7,0 1.3,0.6 1.3,1.3 v 4.6 c 0,0.7 -0.6,1.3 -1.3,1.3 z m -15,-19.6 h -4.6 c -0.7,0 -1.3,-0.6 -1.3,-1.3 0,-0.7 0.6,-1.3 1.3,-1.3 h 4.6 c 0.7,0 1.3,0.6 1.3,1.3 0,0.7 -0.6,1.3 -1.3,1.3 z m 34.6,0 h -4.6 c -0.7,0 -1.3,-0.6 -1.3,-1.3 0,-0.7 0.6,-1.3 1.3,-1.3 h 4.6 c 0.7,0 1.3,0.6 1.3,1.3 0,0.7 -0.6,1.3 -1.3,1.3 z M 44,23.5 c -0.3,0 -0.7,-0.1 -0.9,-0.4 -0.5,-0.5 -0.5,-1.4 0,-1.9 L 46.3,18 c 0.5,-0.5 1.4,-0.5 1.9,0 0.5,0.5 0.5,1.4 0,1.9 L 45,23.1 c -0.3,0.3 -0.7,0.4 -1,0.4 z M 19.1,48.4 c -0.3,0 -0.7,-0.1 -0.9,-0.4 -0.5,-0.5 -0.5,-1.4 0,-1.9 l 3.2,-3.2 c 0.5,-0.5 1.4,-0.5 1.9,0 0.5,0.5 0.5,1.4 0,1.9 L 20,48 c -0.2,0.3 -0.6,0.4 -0.9,0.4 z m 28.1,-0.2 c -0.3,0 -0.7,-0.1 -0.9,-0.4 l -3.2,-3.2 c -0.5,-0.5 -0.5,-1.4 0,-1.9 0.5,-0.5 1.4,-0.5 1.9,0 l 3.2,3.2 c 0.5,0.5 0.5,1.4 0,1.9 -0.3,0.3 -0.6,0.4 -1,0.4 z M 22.3,23.7 c -0.3,0 -0.7,-0.1 -0.9,-0.4 l -3.2,-3.2 c -0.5,-0.5 -0.5,-1.4 0,-1.9 0.5,-0.5 1.4,-0.5 1.9,0 l 3.2,3.2 c 0.5,0.5 0.5,1.4 0,1.9 -0.3,0.3 -0.6,0.4 -1,0.4 z m 10.6,0.8 c 4.6,0 8.4,3.8 8.4,8.4 0,4.6 -3.8,8.4 -8.4,8.4 -4.6,0 -8.4,-3.8 -8.4,-8.4 0,-4.6 3.8,-8.4 8.4,-8.4 m 0,-2.7 c -6.1,0 -11.1,5 -11.1,11.1 0,6.1 5,11.1 11.1,11.1 C 39,44 44,39 44,32.9 44,26.8 39,21.8 32.9,21.8 Z"
         id="path4"
         inkscape:connector-curvature="0"
         style="fill:#f4a71d;fill-opacity:1" />
    </g>
  </g>
</svg>
