<?xml version="1.0" encoding="UTF-8" standalone="no"?>
<!-- Created with Inkscape (http://www.inkscape.org/) -->

<svg
   xmlns:dc="http://purl.org/dc/elements/1.1/"
   xmlns:cc="http://creativecommons.org/ns#"
   xmlns:rdf="http://www.w3.org/1999/02/22-rdf-syntax-ns#"
   xmlns:svg="http://www.w3.org/2000/svg"
   xmlns="http://www.w3.org/2000/svg"
   xmlns:sodipodi="http://sodipodi.sourceforge.net/DTD/sodipodi-0.dtd"
   xmlns:inkscape="http://www.inkscape.org/namespaces/inkscape"
   width="13.57313mm"
   height="13.36146mm"
   viewBox="0 0 13.573129 13.36146"
   version="1.1"
   id="svg823"
   inkscape:version="0.92.2 (5c3e80d, 2017-08-06)"
   sodipodi:docname="cloudy-day.svg">
  <defs
     id="defs817" />
  <sodipodi:namedview
     id="base"
     pagecolor="#ffffff"
     bordercolor="#666666"
     borderopacity="1.0"
     inkscape:pageopacity="0.0"
     inkscape:pageshadow="2"
     inkscape:zoom="11.2"
     inkscape:cx="27.397319"
     inkscape:cy="17.367657"
     inkscape:document-units="mm"
     inkscape:current-layer="layer1"
     showgrid="false"
     inkscape:window-width="1920"
     inkscape:window-height="1017"
     inkscape:window-x="1912"
     inkscape:window-y="-8"
     inkscape:window-maximized="1" />
  <metadata
     id="metadata820">
    <rdf:RDF>
      <cc:Work
         rdf:about="">
        <dc:format>image/svg+xml</dc:format>
        <dc:type
           rdf:resource="http://purl.org/dc/dcmitype/StillImage" />
        <dc:title></dc:title>
      </cc:Work>
    </rdf:RDF>
  </metadata>
  <g
     inkscape:label="Layer 1"
     inkscape:groupmode="layer"
     id="layer1"
     transform="translate(-109.54981,-107.6859)">
    <path
       inkscape:connector-curvature="0"
       class="st0"
       d="m 117.16981,109.69673 c -0.18521,0 -0.34396,-0.15875 -0.34396,-0.34395 v -1.32292 c 0,-0.18521 0.15875,-0.34396 0.34396,-0.34396 0.18521,0 0.34396,0.15875 0.34396,0.34396 v 1.32292 c 0,0.1852 -0.15875,0.34395 -0.34396,0.34395 z m -4.31271,4.31271 h -1.32291 c -0.18521,0 -0.34396,-0.15875 -0.34396,-0.34396 0,-0.1852 0.15875,-0.34395 0.34396,-0.34395 h 1.32291 c 0.18521,0 0.34396,0.15875 0.34396,0.34395 0,0.18521 -0.15875,0.34396 -0.34396,0.34396 z m 9.92188,0 h -1.32292 c -0.18521,0 -0.34396,-0.15875 -0.34396,-0.34396 0,-0.1852 0.15875,-0.34395 0.34396,-0.34395 h 1.32292 c 0.1852,0 0.34396,0.15875 0.34396,0.34395 0,0.18521 -0.15876,0.34396 -0.34396,0.34396 z m -2.43417,-3.06917 c -0.0794,0 -0.18521,-0.0265 -0.23813,-0.10583 -0.13229,-0.13229 -0.13229,-0.37041 0,-0.50271 l 0.92605,-0.92604 c 0.13229,-0.13229 0.37041,-0.13229 0.50271,0 0.13229,0.13229 0.13229,0.37042 0,0.50271 l -0.92605,0.92604 c -0.0794,0.0529 -0.1852,0.10583 -0.26458,0.10583 z m 0.92604,7.09084 c -0.0794,0 -0.18521,-0.0265 -0.23812,-0.10584 l -0.92605,-0.92604 c -0.13229,-0.13229 -0.13229,-0.37041 0,-0.50271 0.1323,-0.13229 0.34396,-0.13229 0.50271,0 l 0.92605,0.92605 c 0.13229,0.13229 0.13229,0.37041 0,0.5027 -0.0794,0.0529 -0.18521,0.10584 -0.26459,0.10584 z m -7.14375,-7.03792 c -0.0794,0 -0.18521,-0.0265 -0.23812,-0.10583 l -0.92605,-0.92604 c -0.13229,-0.1323 -0.13229,-0.37042 0,-0.50271 0.1323,-0.13229 0.34396,-0.13229 0.50271,0 l 0.92605,0.92604 c 0.13229,0.13229 0.13229,0.37042 0,0.50271 -0.0794,0.0794 -0.18521,0.10583 -0.26459,0.10583 z"
       id="path4"
       style="stroke-width:0.26458332;fill:#f4a71d;fill-opacity:1" />
    <path
       inkscape:connector-curvature="0"
       d="m 116.61419,121.04736 h -5.29167 c -0.97896,0 -1.77271,-0.79375 -1.77271,-1.77271 0,-0.74083 0.44979,-1.40229 1.13771,-1.66688 0.0265,-0.87312 0.74083,-1.5875 1.64042,-1.5875 0.1852,0 0.37041,0.0265 0.52916,0.10584 0.42334,-0.58209 1.11125,-0.9525 1.85209,-0.9525 1.26999,0 2.30187,1.03187 2.30187,2.30187 0,0.10584 0,0.18521 -0.0265,0.29104 0.74084,0.15875 1.32292,0.82021 1.32292,1.64042 -0.0265,0.89959 -0.76729,1.64042 -1.69333,1.64042 z m -4.31271,-4.31271 c -0.50271,0 -0.92604,0.42333 -0.92604,0.92604 0,0.0529 0,0.10583 0.0264,0.15875 l 0.0529,0.34396 -0.34396,0.0794 c -0.50271,0.10584 -0.87312,0.55563 -0.87312,1.05834 0,0.58208 0.47625,1.08479 1.08479,1.08479 h 5.29167 c 0.52916,0 0.9525,-0.42333 0.9525,-0.9525 0,-0.52917 -0.42334,-0.9525 -0.9525,-0.9525 h -0.0529 l -0.52917,0.0265 0.15875,-0.50271 c 0.0529,-0.15875 0.0794,-0.3175 0.0794,-0.50271 0,-0.87312 -0.71438,-1.5875 -1.5875,-1.5875 -0.58209,0 -1.13771,0.3175 -1.40229,0.84667 l -0.18521,0.34396 -0.3175,-0.18521 c -0.13229,-0.13229 -0.3175,-0.18521 -0.47625,-0.18521 z"
       id="path6"
       style="stroke-width:0.26458332;fill:#1b3039;fill-opacity:1" />
    <path
       inkscape:connector-curvature="0"
       class="st0"
       d="m 120.34481,113.66548 c 0,-1.74625 -1.42875,-3.175 -3.175,-3.175 -1.74625,0 -3.175,1.42875 -3.175,3.175 0,0.18521 0.0265,0.37042 0.0529,0.52917 0,0.21167 0.18521,0.37042 0.37041,0.34396 0.10584,0 0.26459,-0.0794 0.29105,-0.18521 0.0529,-0.13229 0.0264,-0.26458 0,-0.39688 -0.0265,-0.10583 -0.0265,-0.21166 -0.0265,-0.29104 0,-1.37583 1.11125,-2.48708 2.48708,-2.48708 1.37583,0 2.46063,1.11125 2.46063,2.48708 0,0.10584 -0.0265,0.21167 -0.0265,0.3175 -0.0265,0.10584 -0.0265,0.21167 -0.0529,0.3175 -0.0529,0.18521 -0.13229,0.39688 -0.21167,0.55563 -0.10583,0.18521 -0.21166,0.34396 -0.34396,0.50271 -0.13229,0.15875 -0.29104,0.29104 -0.44979,0.37041 -0.1852,0.10584 -0.37041,0.18521 -0.55562,0.26459 -0.0794,0.0264 -0.15875,0.0264 -0.23813,0.0794 -0.0794,0.0265 -0.13229,0.10583 -0.15875,0.18521 -0.0264,0.0529 -0.0264,0.0794 -0.0264,0.13229 0,0.18521 0.15875,0.34396 0.37041,0.37042 1.34938,-0.29104 2.40771,-1.61396 2.40771,-3.09563 z"
       id="path8"
       style="stroke-width:0.26458332;fill:#f4a71d;fill-opacity:1" />
  </g>
</svg>
