<?xml version="1.0" encoding="UTF-8" standalone="no"?>
<!-- Created with Inkscape (http://www.inkscape.org/) -->

<svg
   xmlns:dc="http://purl.org/dc/elements/1.1/"
   xmlns:cc="http://creativecommons.org/ns#"
   xmlns:rdf="http://www.w3.org/1999/02/22-rdf-syntax-ns#"
   xmlns:svg="http://www.w3.org/2000/svg"
   xmlns="http://www.w3.org/2000/svg"
   xmlns:sodipodi="http://sodipodi.sourceforge.net/DTD/sodipodi-0.dtd"
   xmlns:inkscape="http://www.inkscape.org/namespaces/inkscape"
   width="55"
   height="55"
   viewBox="0 0 14.552082 14.552084"
   version="1.1"
   id="svg823"
   inkscape:version="0.92.2 (5c3e80d, 2017-08-06)"
   sodipodi:docname="cloudy.svg">
  <defs
     id="defs817" />
  <sodipodi:namedview
     id="base"
     pagecolor="#ffffff"
     bordercolor="#666666"
     borderopacity="1.0"
     inkscape:pageopacity="0.0"
     inkscape:pageshadow="2"
     inkscape:zoom="11.2"
     inkscape:cx="11.825213"
     inkscape:cy="19.539135"
     inkscape:document-units="px"
     inkscape:current-layer="layer1"
     showgrid="false"
     inkscape:window-width="1920"
     inkscape:window-height="1017"
     inkscape:window-x="-8"
     inkscape:window-y="-8"
     inkscape:window-maximized="1"
     units="px" />
  <metadata
     id="metadata820">
    <rdf:RDF>
      <cc:Work
         rdf:about="">
        <dc:format>image/svg+xml</dc:format>
        <dc:type
           rdf:resource="http://purl.org/dc/dcmitype/StillImage" />
        <dc:title></dc:title>
      </cc:Work>
    </rdf:RDF>
  </metadata>
  <g
     inkscape:label="Layer 1"
     inkscape:groupmode="layer"
     id="layer1"
     transform="translate(-117.88607,-113.6844)">
    <path
       inkscape:connector-curvature="0"
       d="m 129.59388,125.55096 h -8.70479 c -1.48167,0 -2.69875,-1.21708 -2.69875,-2.69875 0,-1.16416 0.76729,-2.19604 1.85208,-2.56646 v -0.0794 c 0,-1.34938 1.11125,-2.46063 2.46063,-2.46063 0.34396,0 0.66146,0.0794 0.97896,0.21167 0.66145,-0.97896 1.74625,-1.5875 2.96333,-1.5875 1.95792,0 3.54542,1.5875 3.54542,3.54542 0,0.21166 -0.0265,0.42333 -0.0529,0.635 1.24354,0.15875 2.19604,1.21708 2.19604,2.48708 -0.0265,1.37583 -1.16417,2.51354 -2.54,2.51354 z m -7.09083,-7.09083 c -0.9525,0 -1.74625,0.79375 -1.74625,1.74625 0,0.0794 0,0.18521 0.0265,0.29104 l 0.0529,0.34396 -0.34396,0.0529 c -0.92604,0.1852 -1.61395,1.00541 -1.61395,1.95791 0,1.11125 0.89958,1.98438 1.98437,1.98438 h 8.70479 c 1.00542,0 1.79917,-0.82021 1.79917,-1.79917 0,-1.00542 -0.82021,-1.79917 -1.79917,-1.79917 h -0.0794 l -0.52917,0.0265 0.15875,-0.50271 c 0.0794,-0.29104 0.13229,-0.58208 0.13229,-0.87312 0,-1.56104 -1.27,-2.83104 -2.83104,-2.83104 -1.05833,0 -2.01083,0.58208 -2.51354,1.50812 l -0.18521,0.34396 -0.3175,-0.18521 c -0.26458,-0.18521 -0.58208,-0.26458 -0.89958,-0.26458 z"
       id="path2"
       style="fill:#1b3039;fill-opacity:1;stroke-width:0.26458332" />
  </g>
</svg>
