<?xml version="1.0" encoding="UTF-8" standalone="no"?>
<!-- Created with Inkscape (http://www.inkscape.org/) -->

<svg
   xmlns:dc="http://purl.org/dc/elements/1.1/"
   xmlns:cc="http://creativecommons.org/ns#"
   xmlns:rdf="http://www.w3.org/1999/02/22-rdf-syntax-ns#"
   xmlns:svg="http://www.w3.org/2000/svg"
   xmlns="http://www.w3.org/2000/svg"
   xmlns:sodipodi="http://sodipodi.sourceforge.net/DTD/sodipodi-0.dtd"
   xmlns:inkscape="http://www.inkscape.org/namespaces/inkscape"
   width="10.45104mm"
   height="10.37167mm"
   viewBox="0 0 10.45104 10.37167"
   version="1.1"
   id="svg823"
   inkscape:version="0.92.2 (5c3e80d, 2017-08-06)"
   sodipodi:docname="snowy.svg">
  <defs
     id="defs817" />
  <sodipodi:namedview
     id="base"
     pagecolor="#ffffff"
     bordercolor="#666666"
     borderopacity="1.0"
     inkscape:pageopacity="0.0"
     inkscape:pageshadow="2"
     inkscape:zoom="11.2"
     inkscape:cx="9.7652557"
     inkscape:cy="21.271227"
     inkscape:document-units="mm"
     inkscape:current-layer="layer1"
     showgrid="false"
     inkscape:window-width="1920"
     inkscape:window-height="1017"
     inkscape:window-x="1912"
     inkscape:window-y="-8"
     inkscape:window-maximized="1" />
  <metadata
     id="metadata820">
    <rdf:RDF>
      <cc:Work
         rdf:about="">
        <dc:format>image/svg+xml</dc:format>
        <dc:type
           rdf:resource="http://purl.org/dc/dcmitype/StillImage" />
        <dc:title></dc:title>
      </cc:Work>
    </rdf:RDF>
  </metadata>
  <g
     inkscape:label="Layer 1"
     inkscape:groupmode="layer"
     id="layer1"
     transform="translate(-114.21496,-112.65345)">
    <path
       inkscape:connector-curvature="0"
       class="st0"
       d="m 124.37496,117.60116 h -1.37584 l 0.58209,-0.58208 c 0.10583,-0.10584 0.10583,-0.26459 0,-0.37042 -0.10584,-0.10583 -0.26459,-0.10583 -0.37042,0 l -0.9525,0.9525 h -2.19604 l 1.56104,-1.56104 h 1.34937 c 0.1323,0 0.26459,-0.10583 0.26459,-0.26458 0,-0.1323 -0.10584,-0.26459 -0.26459,-0.26459 h -0.8202 l 0.97895,-0.97896 c 0.10584,-0.10583 0.10584,-0.26458 0,-0.37041 -0.10583,-0.10584 -0.26458,-0.10584 -0.37041,0 l -0.97896,0.97896 v -0.82021 c 0,-0.13229 -0.10583,-0.26459 -0.26458,-0.26459 -0.1323,0 -0.26459,0.10584 -0.26459,0.26459 v 1.34937 l -1.56104,1.56104 v -2.19604 l 0.9525,-0.9525 c 0.10583,-0.10583 0.10583,-0.26458 0,-0.37041 -0.10583,-0.10584 -0.26458,-0.10584 -0.37042,0 l -0.58208,0.58208 v -1.37583 c 0,-0.1323 -0.10583,-0.26459 -0.26458,-0.26459 -0.13229,0 -0.26459,0.10584 -0.26459,0.26459 v 1.37583 l -0.58208,-0.58208 c -0.10583,-0.10584 -0.26458,-0.10584 -0.37042,0 -0.10583,0.10583 -0.10583,0.26458 0,0.37041 l 0.9525,0.9525 v 2.19604 l -1.56104,-1.56104 v -1.34937 c 0,-0.13229 -0.10583,-0.26459 -0.26458,-0.26459 -0.13229,0 -0.26458,0.10584 -0.26458,0.26459 v 0.82021 l -0.97896,-0.97896 c -0.10584,-0.10584 -0.26459,-0.10584 -0.37042,0 -0.10583,0.10583 -0.10583,0.26458 0,0.37041 l 0.97896,0.97896 h -0.82021 c -0.13229,0 -0.26458,0.10584 -0.26458,0.26459 0,0.13229 0.10583,0.26458 0.26458,0.26458 h 1.34938 l 1.56104,1.56104 h -2.19604 l -0.9525,-0.9525 c -0.10584,-0.10583 -0.26459,-0.10583 -0.37042,0 -0.10583,0.10583 -0.10583,0.26458 0,0.37042 l 0.58208,0.58208 h -1.37583 c -0.13229,0 -0.26458,0.10583 -0.26458,0.26458 0,0.1323 0.10583,0.26459 0.26458,0.26459 h 1.37583 l -0.58208,0.58208 c -0.10583,0.10583 -0.10583,0.26458 0,0.37042 0.0529,0.0529 0.10583,0.0794 0.18521,0.0794 0.0529,0 0.13229,-0.0265 0.18521,-0.0794 l 0.9525,-0.9525 h 2.19604 l -1.56104,1.56104 h -1.34938 c -0.13229,0 -0.26458,0.10583 -0.26458,0.26458 0,0.13229 0.10583,0.26459 0.26458,0.26459 h 0.82021 l -0.9525,0.92604 c -0.10583,0.10583 -0.10583,0.26458 0,0.37041 0.0529,0.0529 0.10583,0.0794 0.18521,0.0794 0.0529,0 0.13229,-0.0265 0.18521,-0.0794 l 0.97895,-0.97895 v 0.8202 c 0,0.1323 0.10584,0.26459 0.26459,0.26459 0.13229,0 0.26458,-0.10584 0.26458,-0.26459 v -1.34937 l 1.56104,-1.56104 v 2.19604 l -0.9525,0.9525 c -0.10583,0.10583 -0.10583,0.26458 0,0.37042 0.0529,0.0529 0.10584,0.0794 0.18521,0.0794 0.0794,0 0.13229,-0.0265 0.18521,-0.0794 l 0.58208,-0.58209 v 1.37584 c 0,0.13229 0.10584,0.26458 0.26459,0.26458 0.13229,0 0.26458,-0.10583 0.26458,-0.26458 v -1.37584 l 0.58208,0.58209 c 0.0529,0.0529 0.10584,0.0794 0.18521,0.0794 0.0794,0 0.13229,-0.0265 0.18521,-0.0794 0.10583,-0.10584 0.10583,-0.26459 0,-0.37042 l -0.9525,-0.9525 v -2.19604 l 1.56104,1.56104 v 1.34937 c 0,0.1323 0.10583,0.26459 0.26458,0.26459 0.1323,0 0.26459,-0.10584 0.26459,-0.26459 v -0.8202 l 0.97896,0.97895 c 0.0529,0.0529 0.10583,0.0794 0.1852,0.0794 0.0794,0 0.1323,-0.0265 0.18521,-0.0794 0.10584,-0.10583 0.10584,-0.26458 0,-0.37041 l -0.97896,-0.97896 h 0.82021 c 0.13229,0 0.26459,-0.10583 0.26459,-0.26458 0,-0.1323 -0.10584,-0.26459 -0.26459,-0.26459 h -1.34937 l -1.56104,-1.56104 h 2.19604 l 0.9525,0.9525 c 0.0529,0.0529 0.10583,0.0794 0.18521,0.0794 0.0794,0 0.13229,-0.0265 0.1852,-0.0794 0.10584,-0.10583 0.10584,-0.26458 0,-0.37042 l -0.58208,-0.58208 h 1.37583 c 0.1323,0 0.26459,-0.10583 0.26459,-0.26458 -0.0529,-0.10584 -0.15875,-0.21167 -0.29104,-0.21167 z"
       id="snow"
       style="stroke-width:0.26458332;fill:#72b8d4;fill-opacity:1" />
  </g>
</svg>
