<?xml version="1.0" encoding="UTF-8" standalone="no"?>
<!-- Created with Inkscape (http://www.inkscape.org/) -->

<svg
   xmlns:dc="http://purl.org/dc/elements/1.1/"
   xmlns:cc="http://creativecommons.org/ns#"
   xmlns:rdf="http://www.w3.org/1999/02/22-rdf-syntax-ns#"
   xmlns:svg="http://www.w3.org/2000/svg"
   xmlns="http://www.w3.org/2000/svg"
   xmlns:sodipodi="http://sodipodi.sourceforge.net/DTD/sodipodi-0.dtd"
   xmlns:inkscape="http://www.inkscape.org/namespaces/inkscape"
   width="52.799961"
   height="52.699993"
   viewBox="0 0 13.969989 13.943541"
   version="1.1"
   id="svg823"
   inkscape:version="0.92.2 (5c3e80d, 2017-08-06)"
   sodipodi:docname="wind.svg">
  <defs
     id="defs817" />
  <sodipodi:namedview
     id="base"
     pagecolor="#ffffff"
     bordercolor="#666666"
     borderopacity="1.0"
     inkscape:pageopacity="0.0"
     inkscape:pageshadow="2"
     inkscape:zoom="11.2"
     inkscape:cx="55.648679"
     inkscape:cy="28.167829"
     inkscape:document-units="mm"
     inkscape:current-layer="g961"
     showgrid="false"
     inkscape:window-width="1920"
     inkscape:window-height="1017"
     inkscape:window-x="1912"
     inkscape:window-y="-8"
     inkscape:window-maximized="1"
     units="px" />
  <metadata
     id="metadata820">
    <rdf:RDF>
      <cc:Work
         rdf:about="">
        <dc:format>image/svg+xml</dc:format>
        <dc:type
           rdf:resource="http://purl.org/dc/dcmitype/StillImage" />
        <dc:title></dc:title>
      </cc:Work>
    </rdf:RDF>
  </metadata>
  <g
     inkscape:label="Layer 1"
     inkscape:groupmode="layer"
     id="layer1"
     transform="translate(-120.01881,-107.3175)">
    <g
       id="g961"
       transform="matrix(0.26458333,0,0,0.26458333,107.94039,93.491777)">
      <g
         id="g941"
         transform="matrix(0.66496165,0,0,0.67577326,38.848812,44.567369)"
         style="fill:#72b8d4;fill-opacity:1">
        <path
           id="path935"
           d="M 49.5,53.8 H 21.4 c -1.4,0 -2.6,1.2 -2.6,2.6 0,1.4 1.2,2.6 2.6,2.6 h 28.1 c 4.7,0 8.6,3.9 8.6,8.6 0,4.7 -3.9,8.6 -8.6,8.6 -4.7,0 -8.6,-3.9 -8.6,-8.6 0,-1.4 -1.2,-2.6 -2.6,-2.6 -1.4,0 -2.6,1.2 -2.6,2.6 0,7.6 6.2,13.8 13.8,13.8 7.6,0 13.8,-6.2 13.8,-13.8 0,-7.6 -6.2,-13.8 -13.8,-13.8 z"
           inkscape:connector-curvature="0"
           style="fill:#72b8d4;fill-opacity:1" />
        <path
           id="path937"
           d="m 13.5,49.6 h 65 c 3,0 5.4,2.4 5.4,5.4 0,3 -2.4,5.4 -5.4,5.4 -3,0 -5.4,-2.4 -5.4,-5.4 0,-1.4 -1.2,-2.6 -2.6,-2.6 -1.4,0 -2.6,1.2 -2.6,2.6 0,5.8 4.8,10.6 10.6,10.6 5.8,0 10.6,-4.8 10.6,-10.6 0,-5.8 -4.8,-10.6 -10.6,-10.6 h -65 c -1.4,0 -2.6,1.2 -2.6,2.6 0,1.4 1.2,2.6 2.6,2.6 z"
           inkscape:connector-curvature="0"
           style="fill:#72b8d4;fill-opacity:1" />
        <path
           id="path939"
           d="M 58.1,35.3 H 29.2 c -1.4,0 -2.6,1.2 -2.6,2.6 0,1.4 1.2,2.6 2.6,2.6 H 58 c 6,0 11,-4.9 11,-11 0,-6.1 -4.9,-11 -11,-11 -6.1,0 -11,4.9 -11,11 0,1.4 1.2,2.6 2.6,2.6 1.4,0 2.6,-1.2 2.6,-2.6 0,-3.2 2.6,-5.8 5.8,-5.8 3.2,0 5.8,2.6 5.8,5.8 0,3.2 -2.6,5.8 -5.7,5.8 z"
           inkscape:connector-curvature="0"
           style="fill:#72b8d4;fill-opacity:1" />
      </g>
    </g>
  </g>
</svg>
