<?xml version="1.0" encoding="UTF-8" standalone="no"?>
<svg
   xmlns:dc="http://purl.org/dc/elements/1.1/"
   xmlns:cc="http://creativecommons.org/ns#"
   xmlns:rdf="http://www.w3.org/1999/02/22-rdf-syntax-ns#"
   xmlns:svg="http://www.w3.org/2000/svg"
   xmlns="http://www.w3.org/2000/svg"
   xmlns:sodipodi="http://sodipodi.sourceforge.net/DTD/sodipodi-0.dtd"
   xmlns:inkscape="http://www.inkscape.org/namespaces/inkscape"
   version="1.1"
   x="0px"
   y="0px"
   viewBox="0 0 54.84359 90"
   xml:space="preserve"
   id="svg8"
   sodipodi:docname="fireplace_on.svg"
   width="54.84359"
   height="90"
   inkscape:version="0.92.2 (5c3e80d, 2017-08-06)"><metadata
     id="metadata14"><rdf:RDF><cc:Work
         rdf:about=""><dc:format>image/svg+xml</dc:format><dc:type
           rdf:resource="http://purl.org/dc/dcmitype/StillImage" /><dc:title></dc:title></cc:Work></rdf:RDF></metadata><defs
     id="defs12" /><sodipodi:namedview
     pagecolor="#ffffff"
     bordercolor="#666666"
     borderopacity="1"
     objecttolerance="10"
     gridtolerance="10"
     guidetolerance="10"
     inkscape:pageopacity="0"
     inkscape:pageshadow="2"
     inkscape:window-width="1920"
     inkscape:window-height="1017"
     id="namedview10"
     showgrid="false"
     inkscape:zoom="4.17193"
     inkscape:cx="41.838397"
     inkscape:cy="57.103201"
     inkscape:window-x="-8"
     inkscape:window-y="-8"
     inkscape:window-maximized="1"
     inkscape:current-layer="svg8" /><path
     d="m 47.195472,34.512539 c -0.352619,-0.625921 -0.71726,-0.928337 -1.046812,-0.928337 -0.395508,0 -0.740183,0.434955 -0.952737,1.268229 -0.696586,2.728053 -2.049959,6.133429 -4.134303,6.133429 -0.210447,0 -0.428124,-0.03502 -0.653698,-0.108493 C 35.560929,39.294 36.933855,31.700672 36.728892,27.973967 36.202251,18.423352 32.985665,7.634109 25.971933,0.618681 25.551314,0.197789 25.196659,0 24.917245,0 24.451697,0 24.195549,0.549984 24.19112,1.534641 24.173611,5.376445 22.612533,13.40332 13.474301,27.142103 4.4987677,40.636337 -4.4931463,58.179164 2.4945097,74.49659 6.7678227,84.47562 16.901681,90 27.033151,90 c 0.03636,0 0.07277,-0.002 0.109123,-0.002 0.02335,0 0.04669,0.002 0.07038,0.002 0.02236,0 0.0443,-0.003 0.0663,-0.003 0.01441,0 0.02848,0.003 0.04289,0.003 0.08037,0 0.160313,-0.009 0.24068,-0.012 6.608603,-0.126 13.172274,-2.6034 18.06391,-7.74401 10.197705,-10.71577 11.50819,-25.267499 6.021565,-38.472752 -1.29157,-3.109428 -2.771296,-6.275883 -4.452537,-9.258679 z M 35.145525,83.74296 c -0.417513,0.4583 -0.875811,0.86274 -1.356468,1.2342 0.958219,-2.50144 0.845931,-5.33518 -0.155531,-7.97914 C 33.302214,76.1239 32.922805,75.23269 32.49193,74.39428 32.40131,74.21815 32.307925,74.133 32.223478,74.133 c -0.101602,0 -0.189841,0.12256 -0.244124,0.3567 -0.178876,0.76732 -0.525938,1.72518 -1.060524,1.72518 -0.05385,0 -0.109826,-0.01 -0.167482,-0.0305 -1.242845,-0.44529 -0.89058,-2.58111 -0.943167,-3.62897 -0.134588,-2.6865 -0.959914,-5.72112 -2.758225,-7.69381 -0.10779,-0.11847 -0.198774,-0.17409 -0.270212,-0.17409 -0.119452,0 -0.185061,0.15483 -0.186397,0.43193 -0.0045,1.08042 -0.40444,3.33773 -2.747601,7.20148 -2.258439,3.72438 -4.511312,8.54395 -2.90215,13.05935 -1.916428,-1.21747 -3.450375,-2.99307 -4.342009,-5.16769 -3.383083,-8.25279 1.622884,-17.68352 5.682375,-24.059392 2.66625,-4.187529 4.237244,-7.564431 5.13197,-10.239607 1.244532,2.683051 2.028735,5.927484 2.208587,9.344602 0.01617,0.30656 0.0062,0.757332 -0.0048,1.234545 -0.05598,2.501085 -0.160675,7.156902 3.887079,8.538112 0.411327,0.14007 0.834961,0.21115 1.259297,0.21115 0.834258,0 1.811752,-0.25164 2.719486,-1.10932 0.123597,0.29595 0.246152,0.5971 0.368005,0.90296 2.72735,6.85785 1.714918,13.85135 -2.708087,18.70734 z"
     id="path2"
     style="fill:#d32f2f;fill-opacity:1;stroke-width:0.703125"
     inkscape:connector-curvature="0" /></svg>